<?xml version="1.0" encoding="UTF-8"?>
<svg id="Layer_1" xmlns="http://www.w3.org/2000/svg" viewBox="0 0 204.53 62.34">
  <defs>
    <style>
      .cls-1 {
        fill: #00ab67;
      }
    </style>
  </defs>
  <g>
    <path class="cls-1" d="M158.52,23.58h-1.16v3h-.66v-3h-1.16v-.58h2.98v.58Z"/>
    <path class="cls-1" d="M163.01,23v3.58h-.66v-3.02l-1.06,3.02h-.8l-1.05-3.02v3.02h-.64v-3.58h1.08l1.03,2.96,1.04-2.96h1.06Z"/>
  </g>
  <path class="cls-1" d="M19.76,21.17h-8.12v20.64h-3.51v-20.64H0v-3.26h19.76v3.26Z"/>
  <path class="cls-1" d="M33.21,35.71c-.24,1.03-.61,1.96-1.12,2.77-.5.82-1.12,1.51-1.85,2.08s-1.55,1-2.48,1.3c-.93.3-1.93.45-3.01.45-.9,0-1.75-.11-2.55-.32-.8-.21-1.53-.52-2.2-.92-.67-.4-1.27-.88-1.81-1.45-.53-.57-.98-1.22-1.35-1.94-.37-.72-.65-1.51-.85-2.37-.19-.86-.29-1.78-.29-2.75s.1-1.88.29-2.73.47-1.64.84-2.36.81-1.36,1.33-1.93,1.12-1.05,1.78-1.45c.66-.4,1.39-.7,2.18-.91.79-.21,1.63-.31,2.52-.31,1.32,0,2.51.23,3.58.68,1.06.45,1.97,1.1,2.72,1.93.75.84,1.33,1.85,1.74,3.03s.61,2.52.61,3.99c0,.21,0,.42-.02.63-.01.21-.03.43-.04.69h-14.09c.1.84.3,1.6.61,2.27.3.67.7,1.24,1.19,1.71.49.47,1.06.83,1.71,1.07.65.25,1.38.37,2.18.37,1.23,0,2.26-.3,3.08-.89.82-.59,1.46-1.48,1.91-2.66h3.38ZM29.8,30.91c-.11-.8-.31-1.51-.59-2.13-.28-.62-.64-1.13-1.07-1.55-.43-.42-.94-.74-1.53-.96-.58-.22-1.23-.33-1.95-.33s-1.41.11-2.02.34-1.15.55-1.62.98c-.47.43-.85.95-1.16,1.56-.31.62-.52,1.31-.65,2.09h10.58Z"/>
  <path class="cls-1" d="M34.54,29.81c0-1.06.19-2.01.59-2.87.39-.85.95-1.58,1.68-2.18.73-.6,1.61-1.06,2.65-1.39,1.04-.32,2.2-.48,3.48-.48,1.37,0,2.59.18,3.67.55,1.08.37,2,.89,2.75,1.58.75.69,1.33,1.52,1.73,2.51.4.99.6,2.11.6,3.36v10.93h-3.38v-4.96c-.22.85-.56,1.61-1.02,2.28-.45.67-1.01,1.25-1.65,1.72-.65.47-1.39.83-2.22,1.08-.83.25-1.73.38-2.7.38s-1.93-.13-2.75-.4c-.82-.27-1.53-.64-2.12-1.13s-1.04-1.07-1.36-1.75c-.32-.68-.48-1.44-.48-2.28s.17-1.6.5-2.27.81-1.25,1.43-1.72c.62-.47,1.38-.83,2.26-1.08.89-.25,1.89-.38,3-.38h7.11v-.43c0-.76-.13-1.44-.38-2.05-.25-.61-.61-1.13-1.08-1.55-.47-.43-1.04-.75-1.7-.98-.67-.23-1.42-.34-2.26-.34s-1.59.09-2.21.28c-.62.18-1.13.44-1.54.78-.4.34-.7.74-.9,1.22-.2.47-.3,1-.3,1.58h-3.38ZM41.15,34.15c-1.25,0-2.2.21-2.85.64-.64.42-.96,1.04-.96,1.86,0,.44.09.83.28,1.17.19.34.46.62.82.85.36.23.81.41,1.34.53.53.12,1.14.18,1.83.18.98,0,1.88-.12,2.7-.35.82-.23,1.52-.56,2.11-.97s1.05-.92,1.38-1.49c.33-.58.49-1.21.49-1.89v-.51h-7.15Z"/>
  <path class="cls-1" d="M69.75,41.67c-1.41.42-2.68.64-3.81.64-.92,0-1.73-.14-2.44-.42-.7-.28-1.3-.7-1.78-1.25-.48-.55-.84-1.24-1.09-2.06-.25-.82-.37-1.77-.37-2.85v-9.49h-3.92v-2.84h3.92v-5.47h3.38v5.47h6.1v2.84h-6.1v9.49c0,1.22.23,2.12.69,2.7.46.58,1.18.87,2.17.87.39,0,.85-.04,1.38-.13.53-.09,1.15-.23,1.86-.42v2.93Z"/>
  <path class="cls-1" d="M74.7,41.82h-3.38v-18.43h3.38v5.88c.21-.92.52-1.74.93-2.47.41-.72.91-1.34,1.5-1.85.59-.51,1.28-.89,2.07-1.16.79-.27,1.67-.4,2.64-.4h.84v3.23h-.83c-1.35,0-2.48.12-3.39.37-.91.25-1.65.62-2.2,1.12-.55.5-.95,1.13-1.19,1.89-.24.76-.36,1.65-.36,2.68v9.13Z"/>
  <path class="cls-1" d="M82.27,32.6c0-.97.1-1.88.29-2.74s.48-1.65.84-2.37c.37-.72.82-1.36,1.35-1.93.53-.57,1.13-1.05,1.79-1.45.67-.4,1.4-.7,2.19-.91.8-.21,1.64-.31,2.54-.31s1.75.1,2.54.31c.79.21,1.52.51,2.19.91.67.4,1.26.88,1.79,1.45s.98,1.22,1.35,1.93c.37.72.65,1.51.84,2.37.19.86.29,1.77.29,2.74s-.1,1.88-.29,2.74c-.19.86-.48,1.65-.84,2.37-.37.72-.82,1.37-1.35,1.93-.53.57-1.13,1.05-1.79,1.45-.67.4-1.4.7-2.19.91-.79.21-1.64.31-2.54.31s-1.74-.1-2.54-.31c-.8-.21-1.53-.51-2.19-.91-.67-.4-1.26-.88-1.79-1.45-.53-.57-.98-1.21-1.35-1.93-.37-.72-.65-1.51-.84-2.37-.19-.86-.29-1.77-.29-2.74ZM85.65,32.6c0,1.03.13,1.96.39,2.78.26.82.63,1.52,1.12,2.1.49.58,1.08,1.02,1.78,1.32.7.31,1.48.46,2.35.46s1.65-.15,2.34-.46c.69-.31,1.28-.75,1.77-1.32.48-.58.86-1.28,1.12-2.1.26-.82.39-1.75.39-2.78s-.13-1.96-.39-2.78c-.26-.82-.63-1.52-1.12-2.09-.48-.57-1.07-1.01-1.77-1.32-.69-.31-1.47-.46-2.34-.46s-1.65.15-2.35.46c-.7.31-1.29.75-1.78,1.32s-.86,1.27-1.12,2.09c-.26.82-.39,1.74-.39,2.77Z"/>
  <path class="cls-1" d="M101.26,32.6c0-.97.1-1.88.29-2.74s.48-1.65.84-2.37c.37-.72.82-1.36,1.35-1.93.53-.57,1.13-1.05,1.79-1.45.67-.4,1.4-.7,2.19-.91.8-.21,1.64-.31,2.54-.31s1.75.1,2.54.31c.79.21,1.52.51,2.19.91.67.4,1.26.88,1.79,1.45s.98,1.22,1.35,1.93c.37.72.65,1.51.84,2.37s.29,1.77.29,2.74-.1,1.88-.29,2.74c-.19.86-.48,1.65-.84,2.37-.37.72-.82,1.37-1.35,1.93-.53.57-1.13,1.05-1.79,1.45-.67.4-1.4.7-2.19.91-.79.21-1.64.31-2.54.31s-1.74-.1-2.54-.31c-.8-.21-1.53-.51-2.19-.91-.67-.4-1.26-.88-1.79-1.45-.53-.57-.98-1.21-1.35-1.93-.37-.72-.65-1.51-.84-2.37-.19-.86-.29-1.77-.29-2.74ZM104.64,32.6c0,1.03.13,1.96.39,2.78.26.82.63,1.52,1.12,2.1.49.58,1.08,1.02,1.78,1.32.7.31,1.48.46,2.35.46s1.65-.15,2.34-.46c.69-.31,1.28-.75,1.77-1.32.48-.58.86-1.28,1.12-2.1.26-.82.39-1.75.39-2.78s-.13-1.96-.39-2.78c-.26-.82-.63-1.52-1.12-2.09-.48-.57-1.07-1.01-1.77-1.32-.69-.31-1.47-.46-2.34-.46s-1.65.15-2.35.46c-.7.31-1.29.75-1.78,1.32s-.86,1.27-1.12,2.09-.39,1.74-.39,2.77Z"/>
  <path class="cls-1" d="M123.85,29.08c.24-.95.57-1.8,1-2.57.43-.76.93-1.41,1.52-1.95s1.24-.95,1.97-1.24c.73-.29,1.51-.43,2.35-.43.76,0,1.48.11,2.16.33.68.22,1.31.53,1.88.94.58.41,1.1.9,1.56,1.47.46.58.86,1.22,1.18,1.94.32.72.57,1.5.75,2.35s.26,1.74.26,2.68-.09,1.84-.26,2.69-.42,1.63-.75,2.35c-.32.72-.72,1.37-1.18,1.94-.47.58-.99,1.07-1.56,1.47-.58.41-1.2.72-1.88.94-.68.22-1.4.33-2.16.33-.84,0-1.62-.14-2.35-.43-.73-.29-1.39-.7-1.97-1.24s-1.09-1.19-1.52-1.95c-.43-.76-.76-1.62-1-2.57v12h-3.38v-24.74h3.38v5.69ZM123.85,32.6c0,1.05.13,2,.39,2.83s.63,1.54,1.12,2.12,1.09,1.03,1.79,1.33c.7.31,1.5.46,2.38.46s1.7-.15,2.39-.44c.69-.29,1.27-.72,1.74-1.3.47-.57.83-1.28,1.07-2.11.24-.84.36-1.8.36-2.9s-.12-2.06-.36-2.9c-.24-.84-.6-1.54-1.07-2.11s-1.05-1-1.74-1.29c-.69-.29-1.49-.44-2.39-.44s-1.68.15-2.38.46c-.7.31-1.3.75-1.79,1.33-.49.58-.86,1.29-1.12,2.12-.26.83-.39,1.78-.39,2.83Z"/>
  <path class="cls-1" d="M146.88,22.89c1.25,0,2.37.14,3.35.43.98.28,1.8.69,2.47,1.22.67.53,1.18,1.16,1.53,1.91s.52,1.59.52,2.52h-3.3c0-.47-.1-.9-.3-1.29-.2-.39-.49-.72-.88-.99-.39-.28-.87-.49-1.43-.64s-1.22-.23-1.96-.23c-.67,0-1.28.06-1.83.18-.55.12-1.02.3-1.42.52-.4.23-.7.5-.92.81s-.33.66-.33,1.05c0,.29.06.54.18.76.12.22.29.41.5.57.21.16.46.3.74.41.28.11.59.21.92.3s.66.15,1.02.21c.35.06.7.12,1.04.17l1.23.19c.51.08,1.05.17,1.62.27.57.1,1.12.24,1.68.41.55.17,1.08.38,1.57.64.5.26.93.58,1.31.97.38.39.68.86.9,1.4.22.54.33,1.19.33,1.93,0,.91-.18,1.71-.54,2.42s-.88,1.3-1.57,1.78c-.69.48-1.55.85-2.58,1.1-1.03.25-2.21.38-3.55.38s-2.62-.14-3.68-.41c-1.05-.27-1.93-.67-2.63-1.2-.7-.53-1.23-1.18-1.58-1.95s-.53-1.66-.53-2.66h3.3c0,.53.1,1,.31,1.41s.52.76.94,1.04c.42.28.96.49,1.6.64.64.14,1.4.22,2.26.22.79,0,1.48-.06,2.1-.18.61-.12,1.13-.29,1.55-.51s.75-.51.97-.84c.22-.33.33-.72.33-1.15,0-.33-.07-.63-.2-.88-.13-.25-.31-.47-.54-.66-.23-.19-.49-.35-.81-.49s-.65-.25-1.01-.36c-.36-.1-.74-.19-1.13-.26-.4-.08-.79-.15-1.19-.21l-1.23-.21c-.47-.08-.96-.17-1.49-.27-.52-.1-1.04-.23-1.56-.39-.52-.16-1.01-.36-1.48-.6s-.89-.54-1.24-.9c-.36-.36-.65-.78-.86-1.28-.21-.5-.32-1.08-.32-1.75,0-.85.18-1.61.54-2.3.36-.69.87-1.27,1.55-1.75.67-.48,1.49-.86,2.45-1.12.96-.26,2.05-.39,3.26-.39Z"/>
  <g>
    <path class="cls-1" d="M16.67,62.12h-1.15v-4.81h-6.38v4.81h-1.15v-10.73h1.15v4.84h6.38v-4.84h1.15v10.73Z"/>
    <path class="cls-1" d="M25.94,51.39v1.08h-5.86v3.76h5.41v1.07h-5.41v3.74h6.01v1.08h-7.15v-10.73h7Z"/>
    <path class="cls-1" d="M27.66,62.12v-10.73h4.96c.36,0,.69.03,1.01.1.32.07.61.17.88.29.27.13.51.28.72.47.21.18.39.39.54.62.15.23.26.48.34.75.08.27.12.56.12.87,0,.42-.07.79-.22,1.13-.14.34-.35.63-.61.88-.26.25-.58.44-.95.58s-.78.22-1.23.23c.4.03.76.2,1.08.49.32.29.6.7.83,1.22l1.38,3.09h-1.26l-1.37-3.08c-.1-.22-.22-.41-.35-.57-.13-.16-.28-.29-.46-.4s-.37-.18-.59-.23c-.22-.05-.47-.08-.74-.08h-2.94v4.36h-1.15ZM32.49,56.68c.4,0,.76-.05,1.08-.15.32-.1.59-.24.82-.42.22-.18.4-.41.52-.67.12-.26.18-.56.18-.89s-.06-.62-.18-.87-.29-.48-.51-.66c-.22-.18-.5-.32-.82-.41-.32-.1-.68-.14-1.09-.14h-3.68v4.21h3.68Z"/>
    <path class="cls-1" d="M43.27,51.39c.33,0,.64.03.94.1.3.06.57.15.83.27.25.12.48.26.69.43.2.17.38.35.52.56.14.21.25.43.33.67.08.24.12.5.12.76,0,.32-.05.62-.16.9-.11.28-.26.53-.45.74-.19.21-.42.39-.68.53-.26.14-.55.23-.86.27.38.04.74.12,1.06.27.32.14.6.33.83.56.23.23.41.5.53.8s.19.63.19.99c0,.28-.04.55-.12.8-.08.25-.2.48-.34.7-.15.21-.33.41-.54.58-.21.17-.45.32-.72.44-.27.12-.56.21-.87.28-.32.06-.65.1-1,.1h-5.25v-10.73h4.99ZM43.35,56.2c.33,0,.63-.05.9-.14.27-.09.5-.22.7-.39.19-.17.34-.36.45-.59s.16-.48.16-.76-.06-.53-.17-.76c-.11-.23-.27-.42-.47-.58s-.45-.29-.74-.38-.61-.13-.96-.13h-3.78v3.74h3.91ZM43.39,61.04c.42,0,.79-.04,1.11-.13.32-.09.6-.21.82-.38.22-.17.39-.37.51-.61.12-.24.18-.52.18-.83,0-.61-.22-1.07-.65-1.39-.44-.32-1.08-.48-1.92-.48h-4v3.81h3.96Z"/>
    <path class="cls-1" d="M48.03,62.12l4.2-10.73h1.69l4.15,10.73h-1.22l-1.13-2.92h-5.36l-1.14,2.92h-1.2ZM55.32,58.14l-2.26-5.85-2.29,5.85h4.54Z"/>
    <path class="cls-1" d="M60.69,51.39v9.65h5.71v1.08h-6.86v-10.73h1.15Z"/>
    <path class="cls-1" d="M83.72,51.39v10.73h-1.15v-9.65l-4.12,9.65h-1.59l-4.08-9.65v9.65h-1.13v-10.73h1.89l4.12,9.78,4.16-9.78h1.89Z"/>
    <path class="cls-1" d="M85.19,62.12l4.2-10.73h1.69l4.15,10.73h-1.22l-1.13-2.92h-5.36l-1.14,2.92h-1.2ZM92.48,58.14l-2.26-5.85-2.29,5.85h4.54Z"/>
    <path class="cls-1" d="M97.09,56.75c0,.69.09,1.32.26,1.88.17.56.42,1.03.73,1.43s.71.69,1.16.91c.46.21.97.32,1.53.32.36,0,.71-.04,1.04-.13.33-.08.64-.2.92-.36.28-.16.54-.34.77-.56.23-.22.42-.46.59-.73.16-.27.29-.56.37-.87s.13-.64.13-.98v-.05h-3.88v-1.05h4.98v5.55h-1.1v-3.11c-.12.5-.31.95-.56,1.36s-.55.76-.91,1.05c-.36.29-.76.52-1.2.68-.45.16-.92.24-1.44.24-.45,0-.87-.06-1.26-.19s-.77-.3-1.1-.53c-.34-.23-.64-.51-.91-.85s-.5-.71-.69-1.12c-.19-.41-.33-.86-.43-1.35-.1-.49-.15-1-.15-1.55s.05-1.08.16-1.57c.11-.49.26-.94.46-1.36.2-.41.45-.78.74-1.11.29-.33.62-.61.98-.84.36-.23.76-.4,1.2-.53.43-.12.9-.18,1.38-.18.6,0,1.16.09,1.68.27s.98.44,1.38.77c.4.33.74.73,1.02,1.2s.47.99.59,1.56h-1.15c-.1-.42-.26-.79-.47-1.13-.21-.34-.46-.62-.76-.86-.3-.24-.64-.42-1.03-.55s-.8-.19-1.25-.19c-.58,0-1.1.11-1.57.32-.47.21-.87.51-1.19.9-.33.39-.58.87-.76,1.42-.18.56-.27,1.18-.27,1.87Z"/>
    <path class="cls-1" d="M109.04,62.12h-1.15v-10.73h1.15v10.73Z"/>
    <path class="cls-1" d="M112.14,56.75c0,.69.09,1.32.27,1.87.18.56.43,1.03.76,1.42.33.39.73.69,1.19.9.47.21.99.31,1.57.31.47,0,.9-.07,1.29-.21.39-.14.73-.35,1.03-.62.3-.27.55-.6.75-1,.2-.4.35-.85.46-1.36h1.15c-.12.66-.31,1.25-.58,1.78-.27.53-.61.97-1.01,1.34-.4.37-.86.65-1.38.85-.52.2-1.09.29-1.71.29-.49,0-.95-.06-1.38-.18-.43-.12-.83-.3-1.2-.53-.37-.23-.69-.51-.98-.84s-.54-.7-.74-1.11-.36-.87-.46-1.36-.16-1.02-.16-1.57.05-1.08.16-1.57c.11-.49.26-.94.46-1.36.2-.41.45-.78.74-1.11.29-.33.62-.61.98-.84.37-.23.76-.4,1.2-.53.43-.12.89-.18,1.38-.18.62,0,1.19.1,1.71.29.52.2.98.48,1.38.85s.74.82,1.01,1.34c.27.53.46,1.12.58,1.78h-1.15c-.1-.51-.25-.96-.46-1.36-.2-.4-.45-.73-.75-1-.3-.27-.64-.48-1.03-.62-.39-.14-.82-.21-1.29-.21-.58,0-1.1.1-1.57.31-.47.21-.87.51-1.19.9-.33.39-.58.86-.76,1.42-.18.56-.27,1.18-.27,1.87Z"/>
    <path class="cls-1" d="M130.16,51.17c.6,0,1.15.08,1.64.23.49.15.92.38,1.27.66.35.29.63.64.82,1.05.19.41.29.87.29,1.39h-1.12c0-.35-.07-.67-.22-.95s-.35-.52-.6-.72c-.26-.2-.56-.35-.92-.46-.36-.11-.75-.16-1.17-.16-.25,0-.5.02-.74.06s-.47.1-.69.17-.42.17-.6.29c-.18.12-.34.25-.48.4s-.24.32-.31.51c-.07.19-.11.4-.11.62,0,.21.03.4.1.56.07.16.16.3.29.41s.27.21.45.29c.17.08.37.15.58.21.21.06.44.11.69.16.25.04.51.09.78.13l.63.1c.29.04.58.1.88.15.3.06.59.13.88.22.28.09.55.2.81.34.25.13.47.31.66.51.19.21.34.45.45.74.11.28.17.62.17,1.01,0,.53-.11,1-.32,1.4-.21.4-.5.74-.88,1.01s-.83.47-1.35.61-1.1.2-1.73.2c-.68,0-1.28-.08-1.83-.23-.54-.15-1-.38-1.38-.67-.38-.29-.67-.65-.88-1.08-.2-.43-.31-.91-.31-1.45h1.12c0,.38.08.71.23,1s.37.54.66.75c.28.21.63.36,1.03.47.4.11.85.16,1.34.16.44,0,.86-.05,1.24-.14s.72-.23,1-.41c.28-.18.51-.41.67-.68.16-.27.24-.6.24-.96,0-.24-.03-.45-.1-.62-.07-.18-.17-.33-.29-.45-.13-.13-.28-.23-.45-.32-.17-.09-.37-.16-.58-.22-.21-.06-.43-.11-.67-.16-.24-.04-.48-.09-.74-.13l-.73-.12c-.28-.04-.57-.09-.87-.15-.3-.05-.59-.12-.87-.21s-.55-.19-.8-.32-.47-.29-.65-.47c-.19-.19-.34-.42-.44-.68-.11-.27-.16-.58-.16-.94,0-.34.05-.65.15-.94.1-.29.23-.55.41-.78s.39-.44.64-.62c.25-.18.52-.33.82-.45.3-.12.62-.21.97-.27.35-.06.7-.09,1.08-.09Z"/>
    <path class="cls-1" d="M137.56,62.12h-1.15v-10.73h1.15v10.73Z"/>
    <path class="cls-1" d="M139.83,51.39h4.74c.38,0,.73.04,1.07.11.34.07.65.18.93.32.28.14.54.31.76.5.23.2.42.42.57.67.16.25.28.52.36.82s.13.61.13.94-.04.65-.13.94c-.08.3-.21.57-.36.82s-.35.47-.57.67c-.22.2-.48.37-.76.51-.28.14-.59.25-.93.32-.34.07-.69.11-1.07.11h-3.59v4h-1.15v-10.73ZM144.48,57.04c.42,0,.8-.05,1.14-.16.34-.11.63-.26.87-.46.24-.2.42-.44.55-.72.13-.28.19-.6.19-.95s-.06-.67-.19-.95-.31-.52-.55-.72-.53-.35-.86-.46c-.34-.11-.72-.16-1.14-.16h-3.53v4.58h3.51Z"/>
    <path class="cls-1" d="M155.43,62.12h-1.57v-1.68h1.57v1.68ZM155.22,51.39v1.86l-.12,5.42h-.92l-.11-5.42v-1.86h1.15Z"/>
  </g>
  <g>
    <rect class="cls-1" x="184.36" width="8.98" height="8.98"/>
    <path class="cls-1" d="M202.67,62.34v-9c-5.33-.56-9.33-4.99-9.33-10.38v-16.03h11.19v-8.98h-31.36v8.98h11.19v16.03c0,10.15,8.19,18.8,18.3,19.38Z"/>
    <path class="cls-1" d="M182.31,49.21c-1.68,2.26-4.26,3.81-7.28,4.13v9c4.49-.26,8.59-2.11,11.77-4.97-2.02-2.37-3.59-5.14-4.5-8.16Z"/>
  </g>
</svg>