<svg xmlns="http://www.w3.org/2000/svg" id="Layer_1" data-name="Layer 1" version="1.1" viewBox="0 0 234 81">
  <defs fill="#000000">
    <style>
      .cls-1 {
        fill: #61398e;
        stroke-width: 0px;
      }
    </style>
  </defs>
  <g>
    <polygon class="cls-1" points="32.57 27.37 12.77 27.37 12.77 30.65 20.91 30.65 20.91 52.36 24.43 52.36 24.43 30.65 32.57 30.65 32.57 27.37" fill="#000000"/>
    <path class="cls-1" d="M37.29,33.33c-5.03,0-8.96,4.26-8.96,9.69v.07c0,5.52,4,9.69,9.31,9.69,3.13,0,5.5-1.07,7.66-3.48l.25-.28-2.21-1.98-.25.26c-1.57,1.65-3.28,2.41-5.37,2.41-3.08,0-5.4-2.12-5.88-5.31h14.11l.04-.33c.04-.33.04-.56.04-.91,0-5.79-3.59-9.83-8.72-9.83ZM37.22,36.33c3.4,0,4.95,2.69,5.3,5.35h-10.69c.47-3.17,2.64-5.35,5.39-5.35Z" fill="#000000"/>
    <path class="cls-1" d="M56.17,33.47c-2.93,0-5.02.77-6.67,1.52l-.32.14,1.05,2.89.37-.17c1.45-.67,3.1-1.28,5.28-1.28s4.96.78,4.96,4.51v.13c-1.32-.35-2.89-.65-5.13-.65-4.95,0-8.03,2.36-8.03,6.16v.07c0,3.91,3.55,5.95,7.06,5.95,2.94,0,4.88-1.2,6.1-2.45v2.07h3.31v-11.32c0-2.36-.65-4.2-1.95-5.49-1.38-1.38-3.42-2.08-6.05-2.08ZM55.27,49.88c-1.99,0-4.13-1-4.13-3.19v-.07c0-2.09,1.81-3.33,4.85-3.33,1.65,0,3.25.22,4.89.67v1.45c0,2.55-2.41,4.47-5.62,4.47Z" fill="#000000"/>
    <path class="cls-1" d="M76.4,27.37h-3.42v6.02h-4.54v3.1h4.54v10.75c0,3.45,1.98,5.43,5.43,5.43,1.26,0,2.34-.26,3.39-.8l.2-.1v-3.11l-.54.26c-.86.42-1.57.59-2.43.59-1.8,0-2.64-.83-2.64-2.6v-10.4h5.68v-3.1h-5.68v-6.02Z" fill="#000000"/>
    <path class="cls-1" d="M95.18,37.02v-3.61h-.36c-2.82-.14-5.34,1.29-6.95,3.84v-3.86h-3.42v18.97h3.42v-7.51c0-4.76,2.64-7.83,6.72-7.83h.58Z" fill="#000000"/>
    <path class="cls-1" d="M104.47,33.33c-5.45,0-9.72,4.27-9.72,9.73v.07c0,5.41,4.24,9.66,9.66,9.66s9.76-4.27,9.76-9.72v-.07c0-5.41-4.26-9.66-9.69-9.66ZM104.47,49.64c-3.5,0-6.24-2.89-6.24-6.59v-.07c0-3.73,2.65-6.55,6.17-6.55s6.27,2.91,6.27,6.62v.07c0,3.72-2.67,6.52-6.2,6.52Z" fill="#000000"/>
    <path class="cls-1" d="M125.43,33.33c-5.45,0-9.72,4.27-9.72,9.73v.07c0,5.41,4.24,9.66,9.66,9.66s9.76-4.27,9.76-9.72v-.07c0-5.41-4.26-9.66-9.69-9.66ZM125.43,49.64c-3.5,0-6.24-2.89-6.24-6.59v-.07c0-3.73,2.65-6.55,6.17-6.55s6.27,2.91,6.27,6.62v.07c0,3.72-2.67,6.52-6.2,6.52Z" fill="#000000"/>
    <path class="cls-1" d="M146.57,33.33c-2.59,0-4.72,1.06-6.48,3.22v-3.16h-3.42v24.51h3.42v-8.23c1.72,2.04,3.9,3.07,6.48,3.07,4.33,0,8.93-3.4,8.93-9.69v-.07c0-6.27-4.6-9.66-8.93-9.66ZM146.08,36.47c3.43,0,5.93,2.76,5.93,6.55v.07c0,3.84-2.44,6.52-5.93,6.52-3,0-6.1-2.45-6.1-6.55v-.07c0-4.02,3.17-6.52,6.1-6.52Z" fill="#000000"/>
    <path class="cls-1" d="M164.4,41.41l-.07-.02c-2.2-.67-4.27-1.3-4.27-2.7v-.07c0-1.33,1.24-2.22,3.09-2.22,1.62,0,3.43.59,5.09,1.67l.32.21,1.6-2.65-.3-.2c-1.93-1.27-4.42-2.04-6.65-2.04-3.81,0-6.47,2.26-6.47,5.5v.07c0,3.66,3.58,4.67,6.2,5.42,2.38.66,4.19,1.29,4.19,2.79v.07c0,1.47-1.34,2.46-3.33,2.46s-4.05-.76-5.97-2.21l-.31-.23-1.78,2.51.27.22c2.07,1.68,5,2.72,7.65,2.72,4.04,0,6.75-2.31,6.75-5.74v-.07c0-3.68-3.62-4.77-6.01-5.48Z" fill="#000000"/>
  </g>
  <g>
    <path class="cls-1" d="M20.87,62.44h1.14v4.38h5.84v-4.38h1.14v9.86h-1.14v-4.44h-5.84v4.44h-1.14v-9.86Z" fill="#000000"/>
    <path class="cls-1" d="M31.85,62.44h7.31v1.01h-6.17v3.36h5.52v1.01h-5.52v3.45h6.24v1.01h-7.38v-9.86Z" fill="#000000"/>
    <path class="cls-1" d="M41.53,62.44h4.35c1.24,0,2.24.37,2.88.99.49.48.78,1.17.78,1.94v.03c0,1.63-1.16,2.59-2.75,2.87l3.11,4.03h-1.4l-2.93-3.83h-2.89v3.83h-1.14v-9.86ZM45.78,67.46c1.52,0,2.6-.76,2.6-2.03v-.03c0-1.21-.95-1.94-2.59-1.94h-3.12v4h3.11Z" fill="#000000"/>
    <path class="cls-1" d="M51.97,62.44h4.31c1.16,0,2.07.32,2.64.87.42.42.65.94.65,1.58v.03c0,1.28-.81,1.94-1.6,2.28,1.2.35,2.17,1.03,2.17,2.38v.03c0,1.69-1.46,2.69-3.67,2.69h-4.49v-9.86ZM58.42,65.04c0-.97-.79-1.61-2.24-1.61h-3.08v3.39h2.99c1.37,0,2.33-.61,2.33-1.76v-.03ZM56.29,67.82h-3.19v3.48h3.39c1.53,0,2.49-.66,2.49-1.76v-.03c0-1.07-.92-1.69-2.69-1.69Z" fill="#000000"/>
    <path class="cls-1" d="M66.14,62.37h1.07l4.61,9.93h-1.23l-1.18-2.6h-5.5l-1.2,2.6h-1.17l4.61-9.93ZM68.96,68.67l-2.3-5.01-2.31,5.01h4.61Z" fill="#000000"/>
    <path class="cls-1" d="M73.81,62.44h1.14v8.83h5.69v1.03h-6.83v-9.86Z" fill="#000000"/>
    <path class="cls-1" d="M86.85,62.44h1.16l3.68,5.38,3.68-5.38h1.16v9.86h-1.14v-7.98l-3.68,5.28h-.06l-3.68-5.27v7.97h-1.11v-9.86Z" fill="#000000"/>
    <path class="cls-1" d="M103.14,62.37h1.07l4.61,9.93h-1.23l-1.18-2.6h-5.5l-1.2,2.6h-1.17l4.61-9.93ZM105.95,68.67l-2.3-5.01-2.31,5.01h4.61Z" fill="#000000"/>
    <path class="cls-1" d="M109.76,67.39v-.03c0-2.7,2.04-5.1,5.07-5.1,1.7,0,2.76.48,3.77,1.31l-.74.84c-.78-.66-1.65-1.13-3.08-1.13-2.24,0-3.84,1.84-3.84,4.04v.03c0,2.35,1.55,4.1,4,4.1,1.16,0,2.23-.44,2.92-.99v-2.45h-3.08v-1h4.18v3.93c-.94.82-2.35,1.51-4.06,1.51-3.18,0-5.14-2.25-5.14-5.07Z" fill="#000000"/>
    <path class="cls-1" d="M121.64,62.44h1.14v9.86h-1.14v-9.86Z" fill="#000000"/>
    <path class="cls-1" d="M125.29,67.39v-.03c0-2.79,2.14-5.1,5.11-5.1,1.83,0,2.93.63,3.94,1.56l-.78.82c-.85-.79-1.81-1.35-3.18-1.35-2.24,0-3.92,1.77-3.92,4.04v.03c0,2.28,1.69,4.07,3.92,4.07,1.39,0,2.3-.52,3.26-1.42l.75.72c-1.05,1.04-2.21,1.73-4.05,1.73-2.92,0-5.07-2.24-5.07-5.07Z" fill="#000000"/>
    <path class="cls-1" d="M139.84,70.86l.71-.82c1.05.93,2.07,1.39,3.47,1.39s2.25-.7,2.25-1.68v-.03c0-.92-.51-1.44-2.63-1.87-2.33-.49-3.4-1.23-3.4-2.84v-.03c0-1.55,1.4-2.69,3.32-2.69,1.47,0,2.53.41,3.55,1.21l-.66.86c-.94-.75-1.88-1.07-2.92-1.07-1.32,0-2.15.7-2.15,1.59v.03c0,.93.52,1.45,2.75,1.92,2.25.48,3.29,1.28,3.29,2.79v.03c0,1.69-1.44,2.79-3.45,2.79-1.6,0-2.92-.52-4.13-1.58Z" fill="#000000"/>
    <path class="cls-1" d="M149.85,62.44h1.14v9.86h-1.14v-9.86Z" fill="#000000"/>
    <path class="cls-1" d="M153.95,62.44h3.79c2.28,0,3.79,1.18,3.79,3.13v.03c0,2.13-1.82,3.22-3.97,3.22h-2.46v3.48h-1.14v-9.86ZM157.59,67.8c1.68,0,2.77-.87,2.77-2.17v-.03c0-1.41-1.08-2.14-2.72-2.14h-2.56v4.34h2.5Z" fill="#000000"/>
    <path class="cls-1" d="M167.8,70.81h1.33v1.48h-1.33v-1.48ZM167.82,63.23v-.79h1.3v.79l-.35,6.28h-.62l-.33-6.28Z" fill="#000000"/>
  </g>
  <g>
    <rect class="cls-1" x="200.54" y="8.54" width="9.43" height="9.43" fill="#000000"/>
    <path class="cls-1" d="M219.35,72.46v-9.45c-5.29-.47-9.38-4.9-9.38-10.26v-15.93h11.26v-9.43h-31.95v9.43h11.26v15.93c0,10.47,8.4,19.23,18.81,19.71Z" fill="#000000"/>
    <path class="cls-1" d="M191.15,63.01v9.45c4.45-.21,8.72-1.94,12.09-4.92-2.2-2.52-3.82-5.5-4.73-8.69-1.75,2.37-4.43,3.89-7.37,4.15Z" fill="#000000"/>
  </g>
</svg>